<mxfile host="Electron" modified="2024-10-20T11:04:03.631Z" agent="Mozilla/5.0 (Macintosh; Intel Mac OS X 10_15_7) AppleWebKit/537.36 (KHTML, like Gecko) draw.io/21.8.2 Chrome/114.0.5735.289 Electron/25.8.1 Safari/537.36" etag="0_7MmPyfL8Yu-hqBbm1C" version="21.8.2" type="device" pages="2">
  <diagram name="systems" id="b1bpMVGy-nIDus6g9WSf">
    <mxGraphModel dx="1232" dy="1290" grid="0" gridSize="10" guides="1" tooltips="1" connect="1" arrows="1" fold="1" page="0" pageScale="1" pageWidth="1169" pageHeight="827" math="0" shadow="0">
      <root>
        <mxCell id="0" />
        <mxCell id="1" parent="0" />
        <mxCell id="QXiomR5kL_JKxor2XZVR-1" value="Jmix &lt;br&gt;Veterinary Training&lt;br&gt;Application" style="rounded=0;whiteSpace=wrap;html=1;fontSize=16;fillColor=#e1d5e7;strokeColor=#9673a6;" vertex="1" parent="1">
          <mxGeometry x="-129" y="-8" width="150" height="70" as="geometry" />
        </mxCell>
        <mxCell id="QXiomR5kL_JKxor2XZVR-2" value="Spring &lt;br&gt;PetClinic&lt;br&gt;Application" style="rounded=0;whiteSpace=wrap;html=1;fontSize=16;fillColor=#d5e8d4;strokeColor=#82b366;" vertex="1" parent="1">
          <mxGeometry x="188" y="-8" width="150" height="70" as="geometry" />
        </mxCell>
        <mxCell id="QXiomR5kL_JKxor2XZVR-3" value="" style="endArrow=classic;html=1;rounded=0;fontSize=12;startSize=8;endSize=8;curved=1;" edge="1" parent="1" source="QXiomR5kL_JKxor2XZVR-1" target="QXiomR5kL_JKxor2XZVR-2">
          <mxGeometry width="50" height="50" relative="1" as="geometry">
            <mxPoint x="44" y="193" as="sourcePoint" />
            <mxPoint x="94" y="143" as="targetPoint" />
          </mxGeometry>
        </mxCell>
        <mxCell id="QXiomR5kL_JKxor2XZVR-4" value="invokes REST API" style="edgeLabel;html=1;align=center;verticalAlign=middle;resizable=0;points=[];fontSize=14;" vertex="1" connectable="0" parent="QXiomR5kL_JKxor2XZVR-3">
          <mxGeometry x="0.3077" relative="1" as="geometry">
            <mxPoint x="-33" y="-12" as="offset" />
          </mxGeometry>
        </mxCell>
      </root>
    </mxGraphModel>
  </diagram>
  <diagram id="skE71B7F0PoxJsqIq1Eo" name="data-model">
    <mxGraphModel dx="1232" dy="890" grid="0" gridSize="10" guides="1" tooltips="1" connect="1" arrows="1" fold="1" page="0" pageScale="1" pageWidth="1169" pageHeight="827" math="0" shadow="0">
      <root>
        <mxCell id="0" />
        <mxCell id="1" parent="0" />
        <mxCell id="6cWRRQYJNKsD54IITAwV-12" value="Spring PetClinic App" style="rounded=0;whiteSpace=wrap;html=1;fontSize=14;dashed=1;align=center;verticalAlign=bottom;" vertex="1" parent="1">
          <mxGeometry x="204" y="68" width="166" height="221" as="geometry" />
        </mxCell>
        <mxCell id="6cWRRQYJNKsD54IITAwV-11" value="Jmix Veterinary Training App" style="rounded=0;whiteSpace=wrap;html=1;fontSize=14;dashed=1;align=center;verticalAlign=bottom;" vertex="1" parent="1">
          <mxGeometry x="-116" y="68" width="284" height="221" as="geometry" />
        </mxCell>
        <mxCell id="6cWRRQYJNKsD54IITAwV-1" value="Training" style="rounded=1;arcSize=10;whiteSpace=wrap;html=1;align=center;fontSize=16;fillColor=#f5f5f5;strokeColor=#666666;fontColor=#333333;" vertex="1" parent="1">
          <mxGeometry x="-86" y="143" width="100" height="40" as="geometry" />
        </mxCell>
        <mxCell id="6cWRRQYJNKsD54IITAwV-2" value="Vet" style="rounded=1;arcSize=10;whiteSpace=wrap;html=1;align=center;fontSize=16;fillColor=#f5f5f5;strokeColor=#666666;fontColor=#333333;" vertex="1" parent="1">
          <mxGeometry x="237" y="198" width="100" height="40" as="geometry" />
        </mxCell>
        <mxCell id="6cWRRQYJNKsD54IITAwV-3" value="Specialty" style="rounded=1;arcSize=10;whiteSpace=wrap;html=1;align=center;fontSize=16;fillColor=#f5f5f5;strokeColor=#666666;fontColor=#333333;" vertex="1" parent="1">
          <mxGeometry x="237" y="98" width="100" height="40" as="geometry" />
        </mxCell>
        <mxCell id="6cWRRQYJNKsD54IITAwV-4" value="" style="endArrow=ERmany;html=1;rounded=0;fontSize=12;startSize=8;endSize=8;curved=1;endFill=0;" edge="1" parent="1" source="6cWRRQYJNKsD54IITAwV-3" target="6cWRRQYJNKsD54IITAwV-2">
          <mxGeometry width="50" height="50" relative="1" as="geometry">
            <mxPoint x="385" y="338" as="sourcePoint" />
            <mxPoint x="435" y="288" as="targetPoint" />
          </mxGeometry>
        </mxCell>
        <mxCell id="6cWRRQYJNKsD54IITAwV-5" value="Vet" style="rounded=1;arcSize=10;whiteSpace=wrap;html=1;align=center;fontSize=16;fillColor=#dae8fc;strokeColor=#6c8ebf;" vertex="1" parent="1">
          <mxGeometry x="36" y="198" width="100" height="40" as="geometry" />
        </mxCell>
        <mxCell id="6cWRRQYJNKsD54IITAwV-6" value="Specialty" style="rounded=1;arcSize=10;whiteSpace=wrap;html=1;align=center;fontSize=16;fillColor=#dae8fc;strokeColor=#6c8ebf;" vertex="1" parent="1">
          <mxGeometry x="36" y="98" width="100" height="40" as="geometry" />
        </mxCell>
        <mxCell id="6cWRRQYJNKsD54IITAwV-7" value="" style="endArrow=ERmany;html=1;rounded=0;fontSize=12;startSize=8;endSize=8;curved=1;endFill=0;fillColor=#dae8fc;strokeColor=#6c8ebf;" edge="1" parent="1" source="6cWRRQYJNKsD54IITAwV-6" target="6cWRRQYJNKsD54IITAwV-5">
          <mxGeometry width="50" height="50" relative="1" as="geometry">
            <mxPoint x="184" y="338" as="sourcePoint" />
            <mxPoint x="234" y="288" as="targetPoint" />
          </mxGeometry>
        </mxCell>
        <mxCell id="6cWRRQYJNKsD54IITAwV-9" value="" style="endArrow=ERmany;html=1;rounded=0;fontSize=12;startSize=8;endSize=8;curved=1;endFill=0;" edge="1" parent="1" source="6cWRRQYJNKsD54IITAwV-6" target="6cWRRQYJNKsD54IITAwV-1">
          <mxGeometry width="50" height="50" relative="1" as="geometry">
            <mxPoint x="-130" y="-10" as="sourcePoint" />
            <mxPoint x="-37" y="68" as="targetPoint" />
            <Array as="points">
              <mxPoint x="-32" y="109" />
            </Array>
          </mxGeometry>
        </mxCell>
        <mxCell id="6cWRRQYJNKsD54IITAwV-10" value="" style="endArrow=ERmany;html=1;rounded=0;fontSize=12;startSize=8;endSize=8;curved=1;endFill=0;" edge="1" parent="1" source="6cWRRQYJNKsD54IITAwV-5" target="6cWRRQYJNKsD54IITAwV-1">
          <mxGeometry width="50" height="50" relative="1" as="geometry">
            <mxPoint x="49" y="304" as="sourcePoint" />
            <mxPoint x="35" y="312" as="targetPoint" />
            <Array as="points">
              <mxPoint x="-32" y="222" />
            </Array>
          </mxGeometry>
        </mxCell>
        <mxCell id="6cWRRQYJNKsD54IITAwV-14" value="" style="endArrow=none;dashed=1;html=1;dashPattern=1 3;strokeWidth=2;rounded=0;fontSize=12;startSize=8;endSize=8;curved=1;" edge="1" parent="1" source="6cWRRQYJNKsD54IITAwV-5" target="6cWRRQYJNKsD54IITAwV-2">
          <mxGeometry width="50" height="50" relative="1" as="geometry">
            <mxPoint x="-44" y="436" as="sourcePoint" />
            <mxPoint x="6" y="386" as="targetPoint" />
          </mxGeometry>
        </mxCell>
        <mxCell id="6cWRRQYJNKsD54IITAwV-15" value="" style="endArrow=none;dashed=1;html=1;dashPattern=1 3;strokeWidth=2;rounded=0;fontSize=12;startSize=8;endSize=8;curved=1;" edge="1" parent="1" source="6cWRRQYJNKsD54IITAwV-6" target="6cWRRQYJNKsD54IITAwV-3">
          <mxGeometry width="50" height="50" relative="1" as="geometry">
            <mxPoint x="163" y="55" as="sourcePoint" />
            <mxPoint x="213" y="5" as="targetPoint" />
          </mxGeometry>
        </mxCell>
      </root>
    </mxGraphModel>
  </diagram>
</mxfile>
